<svg width="80" height="80" viewBox="0 0 80 80" fill="none" xmlns="http://www.w3.org/2000/svg">
<circle cx="40" cy="40" r="40" fill="#34CD9E"/>
<path d="M39.388 16.042L40 16C41.0874 16 42.1381 16.3939 42.9576 17.1086C43.7771 17.8233 44.3101 18.8107 44.458 19.888L44.5 20.5V35.494L59.5 35.5C60.5874 35.5 61.6381 35.8939 62.4576 36.6086C63.2771 37.3233 63.8101 38.3107 63.958 39.388L64 40C64 41.0874 63.6061 42.1381 62.8914 42.9576C62.1767 43.7771 61.1893 44.3101 60.112 44.458L59.5 44.5L44.5 44.494V59.5C44.5 60.5874 44.1061 61.6381 43.3914 62.4576C42.6767 63.2771 41.6893 63.8101 40.612 63.958L40 64C38.9126 64 37.8619 63.6061 37.0424 62.8914C36.2229 62.1767 35.6899 61.1893 35.542 60.112L35.5 59.5V44.494L20.5 44.5C19.4126 44.5 18.3619 44.1061 17.5424 43.3914C16.7229 42.6767 16.1899 41.6893 16.042 40.612L16 40C16 38.9126 16.3939 37.8619 17.1086 37.0424C17.8233 36.2229 18.8107 35.6899 19.888 35.542L20.5 35.5L35.5 35.494V20.5C35.5 19.4126 35.8939 18.3619 36.6086 17.5424C37.3233 16.7229 38.3107 16.1899 39.388 16.042L40 16L39.388 16.042Z" fill="#F9F9F9"/>
</svg>
