<svg width="120" height="120" viewBox="0 0 120 120" fill="none" xmlns="http://www.w3.org/2000/svg">
<circle cx="60" cy="60" r="60" fill="#34CD9E"/>
<path d="M98.8871 55.1655L61.7429 26.5931C60.7154 25.8023 59.2846 25.8023 58.2571 26.5931L21.1129 55.1655C19.8632 56.1287 19.6311 57.9231 20.5943 59.1728C21.1351 59.8742 21.9701 60.2853 22.8558 60.2857H31.4276V91.7154C31.4276 93.2933 32.7069 94.5726 34.2848 94.5726H85.7152C87.2931 94.5726 88.5724 93.2933 88.5724 91.7154V60.2857H97.1442C98.7221 60.285 100.001 59.0049 100 57.427C99.9996 56.5413 99.5886 55.7062 98.8871 55.1655ZM65.7145 88.8581H54.2855V71.7147H65.7145V88.8581ZM85.7152 54.5712C84.1373 54.5712 82.858 55.8505 82.858 57.4284V88.8581H71.429V68.8574C71.429 67.2795 70.1496 66.0002 68.5717 66.0002H51.4283C49.8504 66.0002 48.571 67.2795 48.571 68.8574V88.8581H37.1421V57.4284C37.1421 55.8505 35.8627 54.5712 34.2848 54.5712H31.2561L60 32.4618L88.7439 54.5712H85.7152Z" fill="#F9F9F9"/>
</svg>
