<svg width="120" height="120" viewBox="0 0 120 120" fill="none" xmlns="http://www.w3.org/2000/svg">
<circle cx="60" cy="60" r="60" fill="#34CD9E"/>
<path d="M83.259 69.6292C81.6188 67.9214 79.6404 67.0083 77.5437 67.0083C75.4639 67.0083 73.4686 67.9045 71.7608 69.6123L66.4175 74.9387C65.9779 74.702 65.5382 74.4821 65.1155 74.2623C64.5068 73.958 63.9319 73.6705 63.4415 73.3661C58.4364 70.1872 53.8878 66.0445 49.5253 60.6843C47.4116 58.0126 45.9913 55.7637 44.9598 53.481C46.3464 52.2128 47.6315 50.8939 48.8827 49.6257C49.3562 49.1523 49.8296 48.6619 50.3031 48.1884C53.854 44.6375 53.854 40.0382 50.3031 36.4873L45.6869 31.8711C45.1627 31.347 44.6216 30.8059 44.1144 30.2648C43.0998 29.2164 42.0345 28.1342 40.9354 27.1197C39.2953 25.4964 37.3338 24.634 35.2709 24.634C33.208 24.634 31.2127 25.4964 29.5218 27.1197C29.5049 27.1366 29.5049 27.1366 29.488 27.1535L23.7389 32.9533C21.5745 35.1177 20.3401 37.7555 20.0696 40.8161C19.6638 45.7535 21.1179 50.3528 22.2339 53.3626C24.9732 60.7519 29.0652 67.6001 35.1694 74.9387C42.5756 83.7822 51.4867 90.7656 61.666 95.6862C65.5551 97.5293 70.7462 99.7105 76.5461 100.083C76.9012 100.099 77.2732 100.116 77.6113 100.116C81.5173 100.116 84.7977 98.7129 87.3679 95.9229C87.3848 95.8891 87.4186 95.8722 87.4355 95.8384C88.3148 94.7731 89.3294 93.8093 90.3946 92.7778C91.1217 92.0845 91.8657 91.3574 92.5928 90.5965C94.2668 88.8549 95.1461 86.8258 95.1461 84.746C95.1461 82.6492 94.2499 80.6371 92.5421 78.9461L83.259 69.6292ZM89.3124 87.4345C89.2955 87.4345 89.2955 87.4514 89.3124 87.4345C88.653 88.1447 87.9766 88.7873 87.2495 89.4974C86.1504 90.5458 85.0344 91.6449 83.9861 92.8793C82.2783 94.7055 80.2661 95.5678 77.6282 95.5678C77.3746 95.5678 77.1041 95.5678 76.8504 95.5509C71.8284 95.2296 67.1615 93.2682 63.6613 91.5942C54.0907 86.9611 45.6869 80.3834 38.7034 72.0472C32.9374 65.0976 29.0821 58.6721 26.5289 51.7732C24.9563 47.5628 24.3814 44.2824 24.635 41.1881C24.8041 39.2097 25.565 37.5695 26.9685 36.1661L32.7345 30.4C33.5631 29.6222 34.4423 29.1995 35.3047 29.1995C36.37 29.1995 37.2323 29.842 37.7734 30.3831C37.7903 30.4 37.8073 30.417 37.8242 30.4339C38.8556 31.3977 39.8363 32.3953 40.8678 33.4606C41.392 34.0017 41.9331 34.5428 42.4742 35.1008L47.0904 39.717C48.8827 41.5093 48.8827 43.1664 47.0904 44.9588C46.6 45.4492 46.1265 45.9395 45.6362 46.413C44.2158 47.8672 42.8631 49.2199 41.392 50.5388C41.3582 50.5726 41.3244 50.5895 41.3074 50.6234C39.8533 52.0775 40.1238 53.4979 40.4282 54.4617C40.4451 54.5125 40.462 54.5632 40.4789 54.6139C41.6794 57.5223 43.3704 60.2616 45.9405 63.525L45.9575 63.5419C50.6244 69.291 55.5449 73.772 60.9728 77.2045C61.666 77.6441 62.3762 77.9992 63.0526 78.3374C63.6613 78.6418 64.2362 78.9292 64.7266 79.2336C64.7942 79.2674 64.8619 79.3181 64.9295 79.352C65.5044 79.6394 66.0455 79.7747 66.6035 79.7747C68.0069 79.7747 68.8862 78.8954 69.1737 78.608L74.9566 72.825C75.5315 72.2501 76.4446 71.5569 77.5099 71.5569C78.5582 71.5569 79.4206 72.2163 79.9448 72.7912C79.9617 72.8081 79.9617 72.8081 79.9786 72.825L89.2955 82.142C91.0372 83.8667 91.0372 85.6422 89.3124 87.4345Z" fill="#F9F9F9"/>
<path d="M63.2384 39.0577C67.6685 39.8017 71.6929 41.8984 74.9057 45.1112C78.1184 48.3239 80.1982 52.3483 80.9591 56.7784C81.1451 57.8945 82.1089 58.6723 83.208 58.6723C83.3433 58.6723 83.4617 58.6554 83.5969 58.6385C84.8482 58.4355 85.6768 57.2519 85.4739 56.0006C84.5608 50.6404 82.0244 45.7537 78.1522 41.8815C74.28 38.0093 69.3933 35.473 64.0331 34.5599C62.7818 34.3569 61.6151 35.1855 61.3953 36.4199C61.1754 37.6542 61.9871 38.8548 63.2384 39.0577Z" fill="#F9F9F9"/>
<path d="M99.965 55.3411C98.4601 46.5145 94.3005 38.4827 87.9088 32.091C81.5172 25.6994 73.4853 21.5397 64.6588 20.0348C63.4244 19.815 62.2577 20.6604 62.0379 21.8948C61.835 23.1461 62.6635 24.3128 63.9148 24.5326C71.7944 25.8685 78.9808 29.6054 84.6961 35.3037C90.4114 41.019 94.1314 48.2054 95.4672 56.0851C95.6532 57.2011 96.617 57.9789 97.7161 57.9789C97.8514 57.9789 97.9698 57.962 98.105 57.9451C99.3394 57.7591 100.185 56.5754 99.965 55.3411Z" fill="#F9F9F9"/>
</svg>
