<svg width="30" height="15" viewBox="0 0 30 15" fill="none" xmlns="http://www.w3.org/2000/svg">
<path d="M14.9765 14.5784C14.4767 14.5794 13.9923 14.4099 13.6074 14.0995L0.77276 3.6882C0.335917 3.33476 0.0612027 2.82688 0.00905166 2.27627C-0.0430993 1.72567 0.131585 1.17745 0.494675 0.752219C0.857765 0.326988 1.37952 0.059576 1.94516 0.00881111C2.51079 -0.0419537 3.07398 0.128086 3.51082 0.481526L14.9765 9.81004L26.4421 0.814688C26.6609 0.641724 26.9127 0.512558 27.1829 0.434615C27.4532 0.356673 27.7366 0.33149 28.0169 0.360515C28.2972 0.38954 28.5688 0.472199 28.8162 0.603743C29.0635 0.735288 29.2817 0.913123 29.4583 1.12703C29.6542 1.34113 29.8025 1.5923 29.8941 1.86481C29.9856 2.13733 30.0183 2.4253 29.9902 2.71071C29.9621 2.99611 29.8738 3.27278 29.7307 3.52339C29.5876 3.77401 29.3929 3.99316 29.1588 4.16712L16.3241 14.2244C15.9282 14.4858 15.4537 14.6104 14.9765 14.5784Z" fill="#3F414E"/>
</svg>
