<svg width="80" height="80" viewBox="0 0 80 80" fill="none" xmlns="http://www.w3.org/2000/svg">
<circle cx="40" cy="40" r="40" fill="#34CD9E"/>
<path d="M22.8564 58.6667H57.1436C57.8675 58.6669 58.5644 58.9235 59.0934 59.3848C59.6223 59.8461 59.944 60.4775 59.9934 61.1516C60.0427 61.8256 59.816 62.4921 59.3592 63.0162C58.9024 63.5403 58.2494 63.883 57.5322 63.9751L57.1436 64H22.8564C22.1325 63.9998 21.4356 63.7431 20.9066 63.2819C20.3777 62.8206 20.056 62.1892 20.0066 61.5151C19.9573 60.841 20.184 60.1746 20.6408 59.6505C21.0977 59.1264 21.7506 58.7836 22.4678 58.6916L22.8564 58.6667H57.1436H22.8564ZM39.6114 16.0249L40 16C40.6905 16 41.3576 16.2334 41.8779 16.6569C42.3983 17.0805 42.7367 17.6656 42.8306 18.304L42.8573 18.6667V46.0018L51.4481 37.9876C51.9326 37.5355 52.575 37.261 53.2582 37.214C53.9414 37.167 54.6199 37.3507 55.1702 37.7316L55.4902 37.9876C55.9745 38.4397 56.2687 39.0392 56.319 39.6769C56.3694 40.3145 56.1726 40.9478 55.7645 41.4613L55.4902 41.76L42.0191 54.3289C41.5353 54.7805 40.894 55.0551 40.2116 55.1027C39.5293 55.1504 38.8513 54.9679 38.3009 54.5884L37.9809 54.3289L24.5098 41.76C23.9986 41.2842 23.6993 40.6454 23.6722 39.972C23.645 39.2986 23.8921 38.6407 24.3636 38.1303C24.8351 37.62 25.4961 37.2952 26.2137 37.2212C26.9314 37.1473 27.6524 37.3296 28.2319 37.7316L28.5519 37.9876L37.1427 46.0089V18.6667C37.1428 18.0223 37.3928 17.3997 37.8466 16.914C38.3005 16.4284 38.9274 16.1125 39.6114 16.0249L40 16L39.6114 16.0249Z" fill="#F9F9F9"/>
</svg>
