<svg width="80" height="80" viewBox="0 0 80 80" fill="none" xmlns="http://www.w3.org/2000/svg">
<circle cx="40" cy="40" r="40" fill="#34CD9E"/>
<path d="M40 16C35.2533 16 30.6131 17.4076 26.6663 20.0447C22.7195 22.6819 19.6434 26.4302 17.8269 30.8156C16.0104 35.201 15.5351 40.0266 16.4612 44.6822C17.3872 49.3377 19.673 53.6141 23.0294 56.9706C26.3859 60.327 30.6623 62.6128 35.3178 63.5388C39.9734 64.4649 44.799 63.9896 49.1844 62.1731C53.5698 60.3566 57.3181 57.2805 59.9553 53.3337C62.5924 49.3869 64 44.7467 64 40C64 33.6348 61.4714 27.5303 56.9706 23.0294C52.4697 18.5286 46.3652 16 40 16ZM26.335 33.835C26.335 33.2417 26.511 32.6616 26.8406 32.1683C27.1702 31.6749 27.6388 31.2904 28.187 31.0634C28.7351 30.8363 29.3383 30.7769 29.9203 30.8926C30.5022 31.0084 31.0368 31.2941 31.4563 31.7137C31.8759 32.1332 32.1616 32.6678 32.2774 33.2497C32.3931 33.8317 32.3337 34.4349 32.1066 34.983C31.8796 35.5312 31.4951 35.9998 31.0017 36.3294C30.5084 36.659 29.9284 36.835 29.335 36.835C28.5394 36.835 27.7763 36.5189 27.2137 35.9563C26.6511 35.3937 26.335 34.6306 26.335 33.835ZM40.195 55.315C37.4432 55.3186 34.7612 54.4493 32.5349 52.832C30.3085 51.2148 28.6524 48.933 27.805 46.315H52.57C51.7234 48.9306 50.0696 51.2106 47.8462 52.8276C45.6228 54.4446 42.9442 55.3154 40.195 55.315ZM50.59 36.835C49.9967 36.835 49.4166 36.659 48.9233 36.3294C48.4299 35.9998 48.0454 35.5312 47.8184 34.983C47.5913 34.4349 47.5319 33.8317 47.6476 33.2497C47.7634 32.6678 48.0491 32.1332 48.4687 31.7137C48.8882 31.2941 49.4228 31.0084 50.0047 30.8926C50.5867 30.7769 51.1899 30.8363 51.7381 31.0634C52.2862 31.2904 52.7548 31.6749 53.0844 32.1683C53.4141 32.6616 53.59 33.2417 53.59 33.835C53.59 34.2302 53.5119 34.6216 53.3602 34.9865C53.2085 35.3515 52.9862 35.6829 52.706 35.9616C52.4259 36.2404 52.0934 36.4611 51.7277 36.611C51.3619 36.7608 50.9702 36.837 50.575 36.835H50.59Z" fill="#F9F9F9"/>
</svg>
