<svg width="120" height="120" viewBox="0 0 120 120" fill="none" xmlns="http://www.w3.org/2000/svg">
<circle cx="60" cy="60" r="60" fill="#34CD9E"/>
<path d="M92.9688 32H27.0312C23.1464 32 20 35.1659 20 39.0312V81.2188C20 85.107 23.1695 88.25 27.0312 88.25H92.9688C96.8211 88.25 100 85.1203 100 81.2188V39.0312C100 35.1728 96.8661 32 92.9688 32ZM91.9841 36.6875C90.5475 38.1164 65.8255 62.7083 64.9719 63.5573C63.6438 64.8855 61.8781 65.6167 60 65.6167C58.1219 65.6167 56.3562 64.8853 55.0237 63.553C54.4497 62.9819 30.0005 38.6616 28.0159 36.6875H91.9841ZM24.6875 80.2647V39.9883L44.9434 60.1375L24.6875 80.2647ZM28.0189 83.5625L48.2669 63.4433L51.7136 66.8719C53.927 69.0853 56.8698 70.3042 60 70.3042C63.1302 70.3042 66.073 69.0853 68.282 66.8763L71.7331 63.4433L91.9811 83.5625H28.0189ZM95.3125 80.2647L75.0566 60.1375L95.3125 39.9883V80.2647Z" fill="#F9F9F9"/>
</svg>
