<svg viewBox="0 0 799 756" fill="none" xmlns="http://www.w3.org/2000/svg">
<path d="M23.6599 448.57C23.6599 448.57 22.9799 446.57 21.8799 442.85" stroke="#69F0AE" stroke-width="9" stroke-miterlimit="10"/>
<path d="M18.6598 431.25C-5.65022 337.65 -81.4402 -93.73 678.32 175.57" stroke="#34CD9E" stroke-width="9" stroke-miterlimit="10" stroke-dasharray="12.04 12.04"/>
<path d="M684.01 177.57L689.66 179.57" stroke="#69F0AE" stroke-width="9" stroke-miterlimit="10"/>
<path d="M596.6 510.26C596.605 490.035 589.062 470.535 575.449 455.578C561.835 440.62 543.13 431.28 522.993 429.387C502.856 427.493 482.738 433.182 466.574 445.339C450.411 457.497 439.365 475.248 435.6 495.12L186.01 488.35L188.75 531.23C188.75 531.23 153.16 613.35 340.21 635.23V718.23H556.45V580.23C568.661 573.08 578.791 562.861 585.834 550.587C592.877 538.313 596.588 524.411 596.6 510.26V510.26Z" fill="url(#paint0_linear)"/>
<path d="M197.32 533.03C197.32 533.03 163.24 611.67 342.37 632.65V712.17H549.46V501.57L194.66 491.96L197.32 533.03Z" fill="#F6B9AD"/>
<path d="M300.82 204.86C295.42 213.381 286.868 219.418 277.031 221.654C267.194 223.889 256.872 222.14 248.32 216.79L137.13 143.52C128.609 138.12 122.572 129.568 120.336 119.731C118.101 109.894 119.85 99.5719 125.2 91.02C130.6 82.5102 139.145 76.4804 148.972 74.2456C158.799 72.0108 169.112 73.7521 177.66 79.09L288.85 152.36C297.378 157.753 303.423 166.303 305.666 176.14C307.909 185.978 306.167 196.303 300.82 204.86V204.86Z" fill="url(#paint1_linear)"/>
<path d="M294.66 200.85C289.641 208.77 281.691 214.382 272.547 216.46C263.404 218.538 253.809 216.913 245.86 211.94L142.47 143.83C134.55 138.811 128.937 130.861 126.86 121.717C124.782 112.574 126.407 102.979 131.38 95.03V95.03C136.399 87.1097 144.349 81.4977 153.492 79.4198C162.636 77.3418 172.23 78.9669 180.18 83.94L283.55 152.06C291.471 157.076 297.085 165.022 299.167 174.164C301.248 183.305 299.628 192.899 294.66 200.85V200.85Z" fill="#F6B9AD"/>
<path d="M510.14 590.71C553.091 590.71 587.91 555.891 587.91 512.94C587.91 469.989 553.091 435.17 510.14 435.17C467.189 435.17 432.37 469.989 432.37 512.94C432.37 555.891 467.189 590.71 510.14 590.71Z" fill="#F6B9AD"/>
<path d="M496.14 0H198.22C191.455 0 185.97 5.48451 185.97 12.25V569.71C185.97 576.476 191.455 581.96 198.22 581.96H496.14C502.906 581.96 508.39 576.476 508.39 569.71V12.25C508.39 5.48451 502.906 0 496.14 0Z" fill="url(#paint2_linear)"/>
<path d="M490.39 7.87H203.97C196.437 7.87 190.33 13.9768 190.33 21.51V560.47C190.33 568.003 196.437 574.11 203.97 574.11H490.39C497.923 574.11 504.03 568.003 504.03 560.47V21.51C504.03 13.9768 497.923 7.87 490.39 7.87Z" fill="white"/>
<path d="M424.79 29C423.883 35.005 420.856 40.4869 416.258 44.4542C411.659 48.4215 405.793 50.6122 399.72 50.63H291.38C285.309 50.6098 279.445 48.4181 274.849 44.451C270.252 40.4839 267.227 35.0033 266.32 29H208.92C207.355 28.9987 205.805 29.3058 204.359 29.9037C202.913 30.5017 201.599 31.3788 200.492 32.4848C199.385 33.5909 198.507 34.9043 197.908 36.3499C197.308 37.7956 197 39.3451 197 40.91V554.91C196.999 556.475 197.306 558.025 197.904 559.471C198.502 560.917 199.379 562.231 200.485 563.338C201.591 564.445 202.904 565.323 204.35 565.922C205.796 566.522 207.345 566.83 208.91 566.83H483.05C484.615 566.831 486.165 566.524 487.611 565.926C489.057 565.328 490.371 564.451 491.478 563.345C492.585 562.239 493.463 560.926 494.062 559.48C494.662 558.034 494.97 556.485 494.97 554.92V40.92C494.971 39.3551 494.664 37.8053 494.066 36.3592C493.468 34.913 492.591 33.5989 491.485 32.4919C490.379 31.3849 489.066 30.5067 487.62 29.9076C486.174 29.3084 484.625 29 483.06 29H424.79Z" fill="#34CD9E"/>
<path d="M380.58 28.84H314.67C313.565 28.84 312.67 29.7354 312.67 30.84V31.21C312.67 32.3145 313.565 33.21 314.67 33.21H380.58C381.684 33.21 382.58 32.3145 382.58 31.21V30.84C382.58 29.7354 381.684 28.84 380.58 28.84Z" fill="#DBDBDB"/>
<path d="M397.43 33.21C398.877 33.21 400.05 32.037 400.05 30.59C400.05 29.143 398.877 27.97 397.43 27.97C395.983 27.97 394.81 29.143 394.81 30.59C394.81 32.037 395.983 33.21 397.43 33.21Z" fill="#DBDBDB"/>
<path d="M560.42 526.65C537.85 531.87 522.36 517.15 517.14 494.59L465.28 302.03C462.801 291.151 464.728 279.733 470.639 270.269C476.551 260.805 485.966 254.065 496.83 251.52V251.52C507.709 249.041 519.128 250.968 528.591 256.879C538.055 262.79 544.795 272.206 547.34 283.07L589.66 480.57C594.88 503.17 582.98 521.43 560.42 526.65Z" fill="url(#paint3_linear)"/>
<path d="M541.522 287.794C537.121 268.75 518.117 256.879 499.073 261.279C480.029 265.679 468.158 284.684 472.558 303.728L520.246 510.12C524.646 529.164 543.651 541.035 562.694 536.635C581.738 532.235 593.609 513.23 589.209 494.186L541.522 287.794Z" fill="#F6B9AD"/>
<path d="M575.59 686.15H303.59C296.962 686.15 291.59 691.523 291.59 698.15V743.15C291.59 749.777 296.962 755.15 303.59 755.15H575.59C582.217 755.15 587.59 749.777 587.59 743.15V698.15C587.59 691.523 582.217 686.15 575.59 686.15Z" fill="url(#paint4_linear)"/>
<path d="M567.59 694.15H311.59C304.962 694.15 299.59 699.523 299.59 706.15V736.15C299.59 742.777 304.962 748.15 311.59 748.15H567.59C574.217 748.15 579.59 742.777 579.59 736.15V706.15C579.59 699.523 574.217 694.15 567.59 694.15Z" fill="#525252"/>
<path d="M413.22 182.38L390.28 165.11L400.28 152.11L383.59 139.01L373.16 152.23L349.57 134.48C348.671 133.806 347.578 133.441 346.455 133.441C345.331 133.441 344.238 133.806 343.34 134.48L280.81 181.03C278.44 183.03 276.22 185.32 276.2 190.56H276.13L275.97 262.28V265.47C275.967 266.497 276.167 267.514 276.557 268.464C276.948 269.414 277.522 270.277 278.246 271.005C278.97 271.734 279.831 272.312 280.779 272.707C281.726 273.103 282.743 273.307 283.77 273.31H286.85L346.14 273.44L408.52 273.58C409.547 273.583 410.564 273.383 411.514 272.992C412.464 272.602 413.327 272.028 414.055 271.304C414.783 270.579 415.361 269.719 415.757 268.771C416.152 267.823 416.357 266.807 416.36 265.78L416.53 191H416.66C416.66 185.75 415.59 184.38 413.22 182.38Z" fill="url(#paint5_linear)"/>
<path d="M410.5 192.09C410.5 187.31 409.5 186.09 407.36 184.24L349.29 140.57C348.469 139.954 347.471 139.621 346.445 139.621C345.419 139.621 344.421 139.954 343.6 140.57L286.55 183.05C285.178 184.03 284.074 185.34 283.34 186.858C282.606 188.377 282.266 190.056 282.35 191.74H282.29L282.14 257.18V260.09C282.137 261.982 282.886 263.798 284.221 265.138C285.556 266.479 287.368 267.235 289.26 267.24H292.07L346.17 267.36L403.08 267.49C404.972 267.493 406.788 266.744 408.128 265.409C409.469 264.074 410.225 262.262 410.23 260.37L410.38 192.14L410.5 192.09Z" fill="url(#paint6_linear)"/>
<path d="M283.338 192.002L409.168 192.288L409.011 261.517C409.01 262.066 408.9 262.61 408.689 263.116C408.478 263.623 408.169 264.083 407.78 264.47C407.391 264.858 406.929 265.164 406.422 265.373C405.914 265.582 405.37 265.689 404.822 265.688L287.822 265.422C286.599 265.42 285.428 264.931 284.565 264.065C283.703 263.198 283.22 262.025 283.222 260.802L283.378 192.002L283.338 192.002Z" fill="#34CD9E"/>
<path opacity="0.2" d="M283.167 191L408.996 191.285L408.839 260.515C408.838 261.064 408.729 261.608 408.517 262.114C408.306 262.621 407.997 263.081 407.608 263.468C407.219 263.856 406.758 264.162 406.25 264.371C405.742 264.58 405.199 264.687 404.65 264.686L287.65 264.42C286.427 264.418 285.256 263.929 284.393 263.063C283.531 262.196 283.048 261.023 283.05 259.8L283.207 191L283.167 191Z" fill="white"/>
<path d="M283.35 191.98L283.21 255.57C283.207 256.853 283.457 258.124 283.946 259.31C284.435 260.497 285.152 261.575 286.057 262.484C286.963 263.393 288.038 264.115 289.223 264.609C290.407 265.102 291.677 265.357 292.96 265.36L399.25 265.6" fill="#F5F5F5"/>
<path d="M409.19 192.26L409.05 255.89C409.048 257.173 408.792 258.443 408.299 259.627C407.805 260.812 407.084 261.887 406.174 262.793C405.265 263.698 404.187 264.415 403.001 264.904C401.814 265.393 400.543 265.643 399.26 265.64L292.97 265.4" fill="white"/>
<path d="M343.59 142.23L287.59 183.53C286.245 184.476 285.161 185.747 284.439 187.224C283.716 188.702 283.38 190.338 283.46 191.98L409.35 192.38C409.35 187.73 408.35 186.51 406.27 184.75L349.22 142.25C348.41 141.638 347.423 141.305 346.408 141.301C345.393 141.298 344.404 141.624 343.59 142.23V142.23Z" fill="#34CD9E"/>
<path opacity="0.2" d="M343.142 141.929L287.142 183.229C285.796 184.175 284.712 185.445 283.99 186.923C283.268 188.4 282.932 190.036 283.012 191.679L408.902 192.079C408.902 187.429 407.902 186.209 405.822 184.449L348.772 141.949C347.962 141.337 346.975 141.004 345.96 141C344.945 140.996 343.956 141.322 343.142 141.929V141.929Z" fill="black"/>
<path d="M395.56 156.6L380.33 144.66L343.52 191.28L323.74 175.94L311.35 191.69L340.14 213.68L347.28 219.41L395.56 156.6Z" fill="url(#paint7_linear)"/>
<path d="M394.44 156.31L380.64 145.73L344.07 193.42L323.76 177.85L313.17 191.65L340.38 212.49L347.36 217.72L394.44 156.31Z" fill="white"/>
<path d="M276.94 309.81C271.579 318.266 263.09 324.258 253.327 326.477C243.563 328.695 233.319 326.96 224.83 321.65L130.33 260.12C121.873 254.759 115.882 246.27 113.663 236.507C111.445 226.743 113.18 216.498 118.49 208.01V208.01C123.851 199.553 132.34 193.562 142.103 191.343C151.867 189.125 162.112 190.86 170.6 196.17L265.1 257.7C273.557 263.061 279.548 271.55 281.767 281.313C283.985 291.077 282.25 301.321 276.94 309.81V309.81Z" fill="url(#paint8_linear)"/>
<path d="M271.92 306.57C266.901 314.49 258.951 320.102 249.807 322.18C240.664 324.258 231.069 322.633 223.12 317.66L134.61 260.03C126.69 255.011 121.078 247.061 119 237.917C116.922 228.774 118.547 219.179 123.52 211.23V211.23C128.539 203.31 136.489 197.698 145.633 195.62C154.776 193.542 164.371 195.167 172.32 200.14L260.83 257.77C268.75 262.789 274.362 270.739 276.44 279.883C278.518 289.026 276.893 298.621 271.92 306.57V306.57Z" fill="#F6B9AD"/>
<path d="M257.66 411.43C252.326 419.85 243.876 425.816 234.157 428.025C224.438 430.234 214.239 428.506 205.79 423.22L131.21 374.97C122.79 369.636 116.824 361.186 114.615 351.467C112.406 341.748 114.133 331.55 119.42 323.1V323.1C124.754 314.681 133.204 308.714 142.923 306.505C152.642 304.296 162.84 306.024 171.29 311.31L245.86 359.57C254.278 364.903 260.244 373.35 262.455 383.066C264.666 392.783 262.942 402.98 257.66 411.43Z" fill="url(#paint9_linear)"/>
<path d="M238.94 513.57C233.558 522.067 225.032 528.088 215.225 530.318C205.418 532.547 195.127 530.805 186.6 525.47L140.41 491.77C131.913 486.388 125.892 477.862 123.663 468.055C121.433 458.248 123.176 447.956 128.51 439.43C133.898 430.94 142.427 424.927 152.234 422.705C162.041 420.483 172.329 422.232 180.85 427.57L227.04 461.26C235.529 466.641 241.544 475.162 243.773 484.962C246.003 494.762 244.265 505.046 238.94 513.57Z" fill="url(#paint10_linear)"/>
<path d="M235.21 511.06C230.191 518.98 222.241 524.592 213.097 526.67C203.954 528.748 194.359 527.123 186.41 522.15L143.34 490.73C135.42 485.711 129.808 477.761 127.73 468.617C125.652 459.474 127.277 449.879 132.25 441.93C137.269 434.01 145.219 428.398 154.363 426.32C163.506 424.242 173.101 425.867 181.05 430.84L224.12 462.26C232.04 467.279 237.652 475.229 239.73 484.373C241.808 493.516 240.183 503.111 235.21 511.06V511.06Z" fill="#F6B9AD"/>
<path d="M437.18 323.57H257.18C250.553 323.57 245.18 328.943 245.18 335.57V372.57C245.18 379.197 250.553 384.57 257.18 384.57H437.18C443.808 384.57 449.18 379.197 449.18 372.57V335.57C449.18 328.943 443.808 323.57 437.18 323.57Z" fill="url(#paint11_linear)"/>
<path d="M430.18 329.57H264.18C257.553 329.57 252.18 334.943 252.18 341.57V361.57C252.18 368.197 257.553 373.57 264.18 373.57H430.18C436.808 373.57 442.18 368.197 442.18 361.57V341.57C442.18 334.943 436.808 329.57 430.18 329.57Z" fill="#69F0AE"/>
<path d="M795.23 214.52L798.82 215.08L798.26 214.55H798.56L798.09 214.39L733 152.66L717.2 177.59L704.06 200.33L710.15 201.28L707.45 213.6L795.23 214.52Z" fill="url(#paint12_linear)"/>
<path d="M719.93 178.89L707.93 199.7L795.93 214.03L739.25 174.56L719.93 178.89Z" fill="#34CD9E"/>
<path opacity="0.2" d="M720 179.33L708 200.14L796 214.47L739.32 175L720 179.33Z" fill="black"/>
<path d="M734.38 156.09L795.93 214.03L719.93 178.89L734.38 156.09Z" fill="#34CD9E"/>
<path d="M711.17 211.93L795.69 213.54L716.79 185.52L711.17 211.93Z" fill="#34CD9E"/>
<path d="M253.56 408.82C248.541 416.74 240.591 422.352 231.448 424.43C222.304 426.508 212.71 424.883 204.76 419.91L134.6 374.51C126.68 369.491 121.068 361.541 118.99 352.397C116.912 343.254 118.537 333.659 123.51 325.71V325.71C128.521 317.781 136.468 312.159 145.612 310.072C154.756 307.984 164.355 309.601 172.31 314.57L242.47 359.97C250.404 364.99 256.026 372.949 258.105 382.104C260.183 391.26 258.549 400.866 253.56 408.82V408.82Z" fill="#F6B9AD"/>
<path d="M265.976 341.658V359H269.356V352.578H271.54C273.542 352.578 274.972 352.006 275.934 351.044C277.26 349.718 277.364 347.846 277.364 347.17C277.364 345.922 277 344.232 275.596 342.984C274.322 341.866 272.97 341.658 271.02 341.658H265.976ZM269.356 344.57H270.526C271.332 344.57 272.216 344.622 272.918 345.116C273.412 345.48 273.88 346.13 273.88 347.092C273.88 347.846 273.568 348.626 272.944 349.12C272.216 349.666 271.384 349.666 270.734 349.666H269.356V344.57ZM279.397 340.046V359H282.569V340.046H279.397ZM293.73 355.386C293.21 356.296 292.3 356.868 291.104 356.868C289.882 356.868 289.18 356.27 288.842 355.802C288.478 355.308 288.296 354.58 288.296 353.904H296.72V353.644C296.72 352.422 296.564 350.654 295.368 349.224C294.588 348.288 293.262 347.378 290.974 347.378C289.622 347.378 288.062 347.664 286.736 348.964C285.93 349.77 285.02 351.148 285.02 353.384C285.02 355.152 285.54 356.608 286.788 357.778C287.906 358.844 289.284 359.364 291.104 359.364C295.03 359.364 296.304 356.686 296.642 355.854L293.73 355.386ZM288.4 351.876C288.66 350.368 289.882 349.614 291.052 349.614C292.222 349.614 293.47 350.342 293.73 351.876H288.4ZM308.062 349.198C306.996 347.534 305.306 347.378 304.448 347.378C301.12 347.378 298.858 350.03 298.858 353.358C298.858 356.66 301.146 359.364 304.604 359.364C305.41 359.364 306.918 359.182 308.062 357.544V359H311.234V347.742H308.062V349.198ZM305.254 350.186C307.074 350.186 308.374 351.564 308.374 353.358C308.374 355.152 307.074 356.556 305.254 356.556C303.434 356.556 302.134 355.152 302.134 353.358C302.134 351.564 303.434 350.186 305.254 350.186ZM321.954 348.574C320.524 347.482 319.198 347.378 318.366 347.378C317.456 347.378 316.312 347.482 315.428 348.184C314.778 348.73 314.258 349.64 314.258 350.732C314.258 351.642 314.596 352.344 315.116 352.89C315.792 353.592 316.728 353.956 317.534 354.242L318.262 354.502C318.678 354.658 319.25 354.944 319.25 355.646C319.25 356.426 318.574 356.868 317.69 356.868C316.754 356.868 315.818 356.296 315.194 355.568L313.53 357.492C314.232 358.246 315.558 359.364 317.898 359.364C319.276 359.364 320.368 359 321.278 358.168C322.188 357.336 322.526 356.322 322.526 355.308C322.526 354.58 322.292 353.904 321.954 353.436C321.304 352.552 319.978 352.11 319.094 351.824L318.34 351.59C317.456 351.304 317.326 350.862 317.326 350.576C317.326 350.03 317.794 349.666 318.548 349.666C318.886 349.666 319.64 349.718 320.394 350.42L321.954 348.574ZM332.908 355.386C332.388 356.296 331.478 356.868 330.282 356.868C329.06 356.868 328.358 356.27 328.02 355.802C327.656 355.308 327.474 354.58 327.474 353.904H335.898V353.644C335.898 352.422 335.742 350.654 334.546 349.224C333.766 348.288 332.44 347.378 330.152 347.378C328.8 347.378 327.24 347.664 325.914 348.964C325.108 349.77 324.198 351.148 324.198 353.384C324.198 355.152 324.718 356.608 325.966 357.778C327.084 358.844 328.462 359.364 330.282 359.364C334.208 359.364 335.482 356.686 335.82 355.854L332.908 355.386ZM327.578 351.876C327.838 350.368 329.06 349.614 330.23 349.614C331.4 349.614 332.648 350.342 332.908 351.876H327.578ZM352.898 348.054C351.988 347.612 351.026 347.378 349.856 347.378C348.764 347.378 347.178 347.612 345.8 348.834C344.656 349.848 343.85 351.434 343.85 353.41C343.85 355.516 344.786 356.92 345.644 357.726C346.658 358.688 348.218 359.364 349.986 359.364C351.286 359.364 352.274 358.974 352.898 358.662V355.568C352.04 356.348 351.104 356.556 350.402 356.556C348.504 356.556 347.126 355.204 347.126 353.358C347.126 351.72 348.192 350.186 350.298 350.186C351.39 350.186 352.222 350.55 352.898 351.174V348.054ZM361.165 347.378C359.033 347.378 357.577 348.08 356.615 348.964C355.497 349.978 354.717 351.538 354.717 353.384C354.717 355.204 355.497 356.764 356.615 357.778C357.577 358.662 359.033 359.364 361.165 359.364C363.297 359.364 364.753 358.662 365.715 357.778C366.833 356.764 367.613 355.204 367.613 353.384C367.613 351.538 366.833 349.978 365.715 348.964C364.753 348.08 363.297 347.378 361.165 347.378ZM361.165 356.556C359.319 356.556 357.993 355.1 357.993 353.384C357.993 351.616 359.345 350.186 361.165 350.186C362.985 350.186 364.337 351.616 364.337 353.384C364.337 355.1 363.011 356.556 361.165 356.556ZM370.067 359H373.239V353.254C373.239 352.604 373.265 351.798 373.733 351.07C374.201 350.368 374.851 350.082 375.683 350.082C375.995 350.082 376.671 350.134 377.165 350.654C377.737 351.252 377.763 352.24 377.763 352.864V359H380.935V351.928C380.935 350.836 380.831 349.718 380.051 348.756C379.167 347.664 377.711 347.378 376.723 347.378C374.903 347.378 373.837 348.366 373.239 349.198V347.742H370.067V359ZM390.091 350.446V347.742H387.179V345.012C387.179 344.518 387.257 343.894 387.543 343.452C388.037 342.672 388.843 342.594 389.337 342.594C389.883 342.594 390.663 342.672 391.157 343.452C391.469 343.946 391.495 344.492 391.495 345.012V345.688H394.667V344.934C394.667 344.102 394.745 342.88 393.887 341.606C392.847 340.046 390.767 339.734 389.337 339.734C387.179 339.734 385.671 340.488 384.839 341.606C383.981 342.776 384.007 343.764 384.007 344.934V347.742H382.811V350.446H384.007V359H387.179V350.446H390.091ZM391.495 347.742V359H394.667V347.742H391.495ZM397.692 359H400.864V353.592C400.864 352.812 400.89 351.85 401.488 351.096C402.112 350.316 402.996 350.186 403.594 350.186C404.244 350.186 404.66 350.316 405.076 350.602L405.492 347.638C405.128 347.508 404.686 347.378 404.14 347.378C403.386 347.378 402.762 347.56 402.268 347.872C402.034 348.002 401.358 348.47 400.864 349.432V347.742H397.692V359ZM407.061 359H410.233V353.254C410.233 352.656 410.259 351.746 410.675 351.07C411.013 350.472 411.559 350.082 412.417 350.082C412.729 350.082 413.301 350.134 413.717 350.654C413.951 350.94 414.237 351.538 414.237 352.864V359H417.409V353.254C417.409 352.656 417.435 351.746 417.851 351.07C418.189 350.472 418.735 350.082 419.593 350.082C419.905 350.082 420.477 350.134 420.893 350.654C421.127 350.94 421.413 351.538 421.413 352.864V359H424.585V351.928C424.585 350.68 424.533 349.718 423.805 348.756C423.363 348.184 422.505 347.378 420.763 347.378C418.813 347.378 417.695 348.548 417.149 349.432C416.863 348.86 415.953 347.378 413.587 347.378C412.911 347.378 411.429 347.508 410.233 349.016V347.742H407.061V359Z" fill="#F9F9F9"/>
<defs>
<linearGradient id="paint0_linear" x1="391.32" y1="718.27" x2="391.32" y2="429.04" gradientUnits="userSpaceOnUse">
<stop stop-color="#808080" stop-opacity="0.25"/>
<stop offset="0.54" stop-color="#808080" stop-opacity="0.12"/>
<stop offset="1" stop-color="#808080" stop-opacity="0.1"/>
</linearGradient>
<linearGradient id="paint1_linear" x1="77136.5" y1="44125.1" x2="77136.5" y2="21827.5" gradientUnits="userSpaceOnUse">
<stop stop-color="#808080" stop-opacity="0.25"/>
<stop offset="0.54" stop-color="#808080" stop-opacity="0.12"/>
<stop offset="1" stop-color="#808080" stop-opacity="0.1"/>
</linearGradient>
<linearGradient id="paint2_linear" x1="175874" y1="380756" x2="175874" y2="42078.9" gradientUnits="userSpaceOnUse">
<stop stop-color="#808080" stop-opacity="0.25"/>
<stop offset="0.54" stop-color="#808080" stop-opacity="0.12"/>
<stop offset="1" stop-color="#808080" stop-opacity="0.1"/>
</linearGradient>
<linearGradient id="paint3_linear" x1="92399.3" y1="166630" x2="92399.3" y2="89760" gradientUnits="userSpaceOnUse">
<stop stop-color="#808080" stop-opacity="0.25"/>
<stop offset="0.54" stop-color="#808080" stop-opacity="0.12"/>
<stop offset="1" stop-color="#808080" stop-opacity="0.1"/>
</linearGradient>
<linearGradient id="paint4_linear" x1="188924" y1="57716" x2="188924" y2="52955" gradientUnits="userSpaceOnUse">
<stop stop-color="#808080" stop-opacity="0.25"/>
<stop offset="0.54" stop-color="#808080" stop-opacity="0.12"/>
<stop offset="1" stop-color="#808080" stop-opacity="0.1"/>
</linearGradient>
<linearGradient id="paint5_linear" x1="346.31" y1="273.57" x2="346.31" y2="133.43" gradientUnits="userSpaceOnUse">
<stop stop-opacity="0.12"/>
<stop offset="0.55" stop-opacity="0.09"/>
<stop offset="1" stop-opacity="0.02"/>
</linearGradient>
<linearGradient id="paint6_linear" x1="70193.4" y1="43597.1" x2="70193.4" y2="27247.8" gradientUnits="userSpaceOnUse">
<stop stop-color="#808080" stop-opacity="0.25"/>
<stop offset="0.54" stop-color="#808080" stop-opacity="0.12"/>
<stop offset="1" stop-color="#808080" stop-opacity="0.1"/>
</linearGradient>
<linearGradient id="paint7_linear" x1="46492.4" y1="22000.2" x2="46505.1" y2="16406.6" gradientUnits="userSpaceOnUse">
<stop stop-opacity="0.12"/>
<stop offset="0.55" stop-opacity="0.09"/>
<stop offset="1" stop-opacity="0.02"/>
</linearGradient>
<linearGradient id="paint8_linear" x1="67436.3" y1="54978.3" x2="67436.3" y2="36202.7" gradientUnits="userSpaceOnUse">
<stop stop-color="#808080" stop-opacity="0.25"/>
<stop offset="0.54" stop-color="#808080" stop-opacity="0.12"/>
<stop offset="1" stop-color="#808080" stop-opacity="0.1"/>
</linearGradient>
<linearGradient id="paint9_linear" x1="58035.4" y1="62176.3" x2="58035.4" y2="46949.3" gradientUnits="userSpaceOnUse">
<stop stop-color="#808080" stop-opacity="0.25"/>
<stop offset="0.54" stop-color="#808080" stop-opacity="0.12"/>
<stop offset="1" stop-color="#808080" stop-opacity="0.1"/>
</linearGradient>
<linearGradient id="paint10_linear" x1="46737.6" y1="66526.4" x2="46737.6" y2="54532.8" gradientUnits="userSpaceOnUse">
<stop stop-color="#808080" stop-opacity="0.25"/>
<stop offset="0.54" stop-color="#808080" stop-opacity="0.12"/>
<stop offset="1" stop-color="#808080" stop-opacity="0.1"/>
</linearGradient>
<linearGradient id="paint11_linear" x1="71069.9" y1="23782.3" x2="71069.9" y2="20061.3" gradientUnits="userSpaceOnUse">
<stop stop-opacity="0.12"/>
<stop offset="0.55" stop-opacity="0.09"/>
<stop offset="1" stop-opacity="0.02"/>
</linearGradient>
<linearGradient id="paint12_linear" x1="66199.7" y1="66190.3" x2="68376.4" y2="62755.2" gradientUnits="userSpaceOnUse">
<stop stop-color="#808080" stop-opacity="0.25"/>
<stop offset="0.54" stop-color="#808080" stop-opacity="0.12"/>
<stop offset="1" stop-color="#808080" stop-opacity="0.1"/>
</linearGradient>
</defs>
</svg>
