<svg width="68" height="68" viewBox="0 0 68 68" fill="none" xmlns="http://www.w3.org/2000/svg">
<g filter="url(#filter0_d)">
<circle cx="34" cy="30" r="30" fill="#3F414E"/>
</g>
<mask id="mask0" mask-type="alpha" maskUnits="userSpaceOnUse" x="4" y="0" width="60" height="60">
<circle cx="34" cy="30" r="30" fill="#3F414E"/>
</mask>
<g mask="url(#mask0)">
<path d="M15.8751 49.875L6.62507 42.625C6.62507 42.625 4.89558 48.134 6.0663 51.2015C7.23702 54.2691 8.87144 55.691 8.87144 55.691C8.87144 55.691 10.0669 57.2874 13.1401 58.5593C16.2133 59.8312 19.9625 59.4273 19.9625 59.4273L34.5967 62.5L49.231 59.4273C49.231 59.4273 52.8514 59.8437 55.7051 58.684C58.5588 57.5243 60.4616 55.691 60.4616 55.691C60.4616 55.691 61.8277 54.2816 63.1448 51.3263C64.4619 48.3709 63.8653 44.4636 63.8653 44.4636L64.6251 26.375L41.9139 44.4636L34.5967 36.9818L15.8751 49.875Z" fill="#34CD9E"/>
</g>
<g filter="url(#filter1_d)">
<path d="M33.9879 44.0119C41.4578 44.0119 44.9982 40.277 44.9982 35.9196C44.9982 25.9209 28.8524 29.6947 28.8524 23.8978C28.8524 21.8358 30.5642 20.2018 34.766 20.2018C37.1392 20.2018 39.8237 20.9021 42.2748 22.3416L43.8699 18.4121C41.4967 16.8559 38.073 16 34.8049 16C27.3351 16 23.8336 19.7349 23.8336 24.1312C23.8336 34.2467 40.0183 30.395 40.0183 36.2697C40.0183 38.2928 38.2286 39.8101 33.9879 39.8101C30.642 39.8101 27.1795 38.5652 25.0007 36.8144L23.25 40.7439C25.5065 42.6891 29.7472 44.0119 33.9879 44.0119Z" fill="#E7E7E7"/>
</g>
<defs>
<filter id="filter0_d" x="0" y="0" width="68" height="68" filterUnits="userSpaceOnUse" color-interpolation-filters="sRGB">
<feFlood flood-opacity="0" result="BackgroundImageFix"/>
<feColorMatrix in="SourceAlpha" type="matrix" values="0 0 0 0 0 0 0 0 0 0 0 0 0 0 0 0 0 0 127 0"/>
<feOffset dy="4"/>
<feGaussianBlur stdDeviation="2"/>
<feColorMatrix type="matrix" values="0 0 0 0 0 0 0 0 0 0 0 0 0 0 0 0 0 0 0.25 0"/>
<feBlend mode="normal" in2="BackgroundImageFix" result="effect1_dropShadow"/>
<feBlend mode="normal" in="SourceGraphic" in2="effect1_dropShadow" result="shape"/>
</filter>
<filter id="filter1_d" x="19.25" y="16" width="29.7482" height="36.0119" filterUnits="userSpaceOnUse" color-interpolation-filters="sRGB">
<feFlood flood-opacity="0" result="BackgroundImageFix"/>
<feColorMatrix in="SourceAlpha" type="matrix" values="0 0 0 0 0 0 0 0 0 0 0 0 0 0 0 0 0 0 127 0"/>
<feOffset dy="4"/>
<feGaussianBlur stdDeviation="2"/>
<feColorMatrix type="matrix" values="0 0 0 0 0 0 0 0 0 0 0 0 0 0 0 0 0 0 0.25 0"/>
<feBlend mode="normal" in2="BackgroundImageFix" result="effect1_dropShadow"/>
<feBlend mode="normal" in="SourceGraphic" in2="effect1_dropShadow" result="shape"/>
</filter>
</defs>
</svg>
